HIERARCHY
ROOT Hips
{
	OFFSET 54.756500 -58.543316 96.748192
	CHANNELS 6 Xposition Yposition Zposition Xrotation Yrotation Zrotation
	JOINT spine
	{
		OFFSET 0.000000 -0.467659 8.132500
		CHANNELS 3 Xrotation Yrotation Zrotation
		JOINT spine1
		{
			OFFSET 0.000000 -0.000004 10.349800
			CHANNELS 3 Xrotation Yrotation Zrotation
			JOINT spine2
			{
				OFFSET 0.000000 0.000000 9.916992
				CHANNELS 3 Xrotation Yrotation Zrotation
				JOINT Neck
				{
					OFFSET 0.000000 -1.213905 25.460991
					CHANNELS 3 Xrotation Yrotation Zrotation
					JOINT Head
					{
						OFFSET 0.000000 -0.000004 7.692444
						CHANNELS 3 Xrotation Yrotation Zrotation
						End Site
						{
							OFFSET 0.000000 6.140625 18.619995
						}
					}
				}
				JOINT RightShoulder
				{
					OFFSET -4.175751 0.581440 10.709587
					CHANNELS 3 Xrotation Yrotation Zrotation
					JOINT RightArm
					{
						OFFSET 0.000000 0.000000 14.046600
						CHANNELS 3 Xrotation Yrotation Zrotation
						JOINT RightArmRoll
						{
							OFFSET 0.000000 -0.000004 7.090988
							CHANNELS 3 Xrotation Yrotation Zrotation
							JOINT RightForeArm
							{
								OFFSET 0.000000 -0.000004 20.653503
								CHANNELS 3 Xrotation Yrotation Zrotation
								JOINT RightForeArmRoll
								{
									OFFSET 0.000000 0.000000 7.957184
									CHANNELS 3 Xrotation Yrotation Zrotation
									JOINT RightHand
									{
										OFFSET 0.000000 -0.000004 15.968307
										CHANNELS 3 Xrotation Yrotation Zrotation
										End Site
										{
											OFFSET 0.000000 0.000000 0.100006
										}
									}
								}
							}
						}
					}
				}
				JOINT LeftShoulder
				{
					OFFSET 4.175751 0.581440 10.709587
					CHANNELS 3 Xrotation Yrotation Zrotation
					JOINT LeftArm
					{
						OFFSET 0.000000 0.000000 14.046600
						CHANNELS 3 Xrotation Yrotation Zrotation
						JOINT LeftArmRoll
						{
							OFFSET 0.000000 -0.000004 7.090973
							CHANNELS 3 Xrotation Yrotation Zrotation
							JOINT LeftForeArm
							{
								OFFSET 0.000000 -0.000004 20.653503
								CHANNELS 3 Xrotation Yrotation Zrotation
								JOINT LeftForeArmRoll
								{
									OFFSET 0.000000 0.000000 7.957184
									CHANNELS 3 Xrotation Yrotation Zrotation
									JOINT LeftHand
									{
										OFFSET 0.000000 -0.000004 15.968292
										CHANNELS 3 Xrotation Yrotation Zrotation
										End Site
										{
											OFFSET 0.000000 0.000000 0.100006
										}
									}
								}
							}
						}
					}
				}
			}
		}
	}
	JOINT RightUpLeg
	{
		OFFSET -7.208340 1.108841 -1.321823
		CHANNELS 3 Xrotation Yrotation Zrotation
		JOINT RightUpLegRoll
		{
			OFFSET 0.000000 -0.000004 18.723801
			CHANNELS 3 Xrotation Yrotation Zrotation
			JOINT RightLeg
			{
				OFFSET 0.000000 0.000004 -23.186600
				CHANNELS 3 Xrotation Yrotation Zrotation
				JOINT RightLegRoll
				{
					OFFSET 0.000000 -0.000004 23.262398
					CHANNELS 3 Xrotation Yrotation Zrotation
					JOINT RightFoot
					{
						OFFSET 0.000000 -0.000004 19.362091
						CHANNELS 3 Xrotation Yrotation Zrotation
						JOINT RightToeBase
						{
							OFFSET 0.000000 0.000000 16.185699
							CHANNELS 3 Xrotation Yrotation Zrotation
							End Site
							{
								OFFSET 0.006859 0.903519 7.838623
							}
						}
					}
				}
			}
		}
	}
	JOINT LeftUpLeg
	{
		OFFSET 7.208340 1.108841 -1.321823
		CHANNELS 3 Xrotation Yrotation Zrotation
		JOINT LeftUpLegRoll
		{
			OFFSET 0.000000 -0.000004 18.723900
			CHANNELS 3 Xrotation Yrotation Zrotation
			JOINT LeftLeg
			{
				OFFSET 0.000000 -0.000004 23.186493
				CHANNELS 3 Xrotation Yrotation Zrotation
				JOINT LeftLegRoll
				{
					OFFSET 0.000000 -0.000004 23.477493
					CHANNELS 3 Xrotation Yrotation Zrotation
					JOINT LeftFoot
					{
						OFFSET 0.000000 -0.000004 19.147003
						CHANNELS 3 Xrotation Yrotation Zrotation
						JOINT LeftToeBase
						{
							OFFSET 0.000000 0.000000 16.185699
							CHANNELS 3 Xrotation Yrotation Zrotation
							End Site
							{
								OFFSET -0.030746 0.903519 7.838623
							}
						}
					}
				}
			}
		}
	}
}
MOTION
Frames: 4
Frame Time: 0.041667
55.442699 -14.861301 56.240509 -4.977684 1.632692 -1.278998 1.182154 -0.677010 -0.087053 6.351680 -1.361067 -0.152196 7.996957 -1.362793 -0.135878 -9.717211 3.232442 -4.258887 5.509660 -3.172615 -4.667791 -18.968252 -55.766278 -22.426648 -53.658291 -142.410496 -61.509692 -0.000005 -0.000001 -0.000001 33.999657 -14.279075 2.880815 -0.000005 0.000004 -3.012209 -5.000068 -7.998753 0.000122 -19.956366 60.727219 23.578262 -58.426743 139.854311 71.382847 -0.000002 -0.000007 0.000007 28.191112 10.408860 -2.295335 0.000010 -0.000006 3.007320 -5.000362 7.998771 -0.000211 -82.848159 -166.358287 4.510051 179.999991 0.000005 -1.005002 95.292873 -1.297333 -4.310033 0.000001 -0.000006 1.841220 67.863216 8.252621 -1.219040 25.456955 -7.355614 0.000007 -83.052505 167.782914 -3.226321 -0.000005 -0.000004 -1.304550 -84.355350 -1.151314 1.641262 -0.000003 0.000002 -2.186350 61.525456 -8.507337 0.924204 25.457560 7.355615 -0.000914 
55.440701 -14.862915 56.240192 -4.981457 1.625480 -1.281948 1.182370 -0.675931 -0.087468 6.353194 -1.358509 -0.151732 7.998470 -1.360233 -0.135444 -9.709963 3.237077 -4.255106 5.500284 -3.175781 -4.664582 -18.960689 -55.762272 -22.417497 -53.650777 -142.411562 -61.483184 -0.000005 -0.000001 -0.000001 34.005248 -14.271440 2.877154 -0.000004 0.000005 -3.012208 -5.000067 -7.998753 0.000123 -19.945233 60.724801 23.565232 -58.423662 139.851853 71.376372 -0.000002 -0.000008 0.000006 28.191806 10.408617 -2.295667 0.000011 -0.000006 3.007321 -5.000364 7.998771 -0.000210 -82.844881 -166.355691 4.507904 179.999991 0.000003 -1.005002 95.294533 -1.296858 -4.309035 0.000002 -0.000006 1.841250 67.863742 8.254384 -1.223532 25.456955 -7.355614 0.000008 -83.044192 167.784826 -3.230102 -0.000005 -0.000005 -1.304550 -84.355138 -1.150789 1.642237 -0.000002 0.000002 -2.185778 61.527410 -8.506044 0.921590 25.457558 7.355614 -0.000914 
55.439602 -14.866310 56.250191 -4.985592 1.617849 -1.285085 1.182620 -0.674784 -0.087892 6.354817 -1.355801 -0.151201 8.000092 -1.357514 -0.134948 -9.702629 3.241909 -4.251119 5.490937 -3.179035 -4.661172 -18.952465 -55.758058 -22.407629 -53.643080 -142.412504 -61.455754 -0.000004 -0.000001 -0.000001 34.011118 -14.263596 2.873439 -0.000006 0.000005 -3.012209 -5.000071 -7.998753 0.000122 -19.933496 60.722178 23.551484 -58.420418 139.849243 71.369678 -0.000000 -0.000007 0.000005 28.192302 10.408478 -2.296019 0.000012 -0.000005 3.007319 -5.000362 7.998770 -0.000211 -82.840981 -166.353055 4.506729 179.999991 0.000005 -1.005002 95.296336 -1.296224 -4.308046 0.000001 -0.000006 1.841291 67.864268 8.256154 -1.228023 25.456950 -7.355615 0.000008 -83.035081 167.786848 -3.235047 -0.000005 -0.000004 -1.304550 -84.354824 -1.150252 1.643214 -0.000002 0.000001 -2.185200 61.529438 -8.504676 0.918899 25.457561 7.355616 -0.000913 
55.437595 -14.863716 56.247612 -4.989962 1.609938 -1.288341 1.182902 -0.673591 -0.088325 6.356520 -1.352984 -0.150626 8.001789 -1.354686 -0.134406 -9.695214 3.246880 -4.246962 5.481618 -3.182360 -4.657634 -18.944204 -55.753772 -22.397613 -53.634573 -142.413911 -61.426698 -0.000003 -0.000000 -0.000001 34.016965 -14.255586 2.869599 -0.000004 0.000005 -3.012209 -5.000067 -7.998750 0.000124 -19.921336 60.719398 23.537260 -58.417891 139.846115 71.363893 0.000001 -0.000008 0.000008 28.192700 10.408355 -2.296363 0.000011 -0.000006 3.007321 -5.000363 7.998771 -0.000211 -82.837060 -166.350432 4.504770 179.999991 0.000003 -1.005002 95.298262 -1.295516 -4.307052 0.000001 -0.000005 1.841329 67.864712 8.257987 -1.232693 25.456952 -7.355613 0.000008 -83.025642 167.788815 -3.239547 -0.000005 -0.000006 -1.304550 -84.354400 -1.149691 1.644189 -0.000002 0.000001 -2.184600 61.531453 -8.503261 0.916018 25.457560 7.355613 -0.000912 
